<?xml version="1.0" standalone="no"?>
<!DOCTYPE svg PUBLIC "-//W3C//DTD SVG 20010904//EN"
 "http://www.w3.org/TR/2001/REC-SVG-20010904/DTD/svg10.dtd">
<svg version="1.0" xmlns="http://www.w3.org/2000/svg"
 width="512.000000pt" height="512.000000pt" viewBox="0 0 512.000000 512.000000"
 preserveAspectRatio="xMidYMid meet">
<metadata>
Created by potrace 1.14, written by Peter Selinger 2001-2017
</metadata>
<g transform="translate(0.000000,512.000000) scale(0.100000,-0.100000)"
fill="#000000" stroke="none">
<path d="M0 2560 l0 -2560 2560 0 2560 0 0 2560 0 2560 -2560 0 -2560 0 0
-2560z m2940 1272 c0 -7 -137 -564 -171 -694 l-10 -38 -484 0 -485 0 -6 -27
c-4 -16 -24 -95 -44 -178 -21 -82 -40 -162 -44 -177 l-6 -28 486 0 c385 0 485
-3 481 -12 -11 -30 -38 -130 -52 -194 -8 -38 -42 -172 -74 -299 l-59 -230
-484 -3 -484 -2 -141 -563 -141 -562 -397 -3 c-316 -2 -396 0 -392 10 2 7 173
687 378 1510 l374 1498 878 0 c482 0 877 -4 877 -8z m1453 -171 c144 -99 270
-186 280 -193 17 -12 11 -41 -102 -492 -66 -263 -121 -479 -123 -480 -2 -2
-91 -40 -198 -85 -107 -46 -199 -86 -203 -91 -5 -4 54 -44 130 -90 76 -45 148
-88 159 -95 21 -14 20 -17 -141 -659 -88 -355 -164 -648 -167 -651 -3 -3 -181
-4 -395 -3 l-391 3 139 555 c77 305 139 558 139 562 0 5 -220 8 -490 8 -436 0
-490 2 -490 16 0 8 12 56 26 106 14 50 29 110 33 132 9 43 53 220 98 389 l25
97 494 0 c272 0 494 2 494 4 0 3 23 93 50 202 28 109 50 199 50 201 0 2 -222
3 -494 3 l-494 0 18 73 c11 39 33 126 49 192 17 66 42 165 56 220 14 55 33
135 42 178 l16 77 564 0 564 0 262 -179z"/>
<path d="M1303 3756 c13 -10 16 -21 11 -40 l-6 -26 716 0 c626 0 716 -2 716
-15 0 -8 -20 -92 -44 -187 -24 -95 -46 -185 -50 -200 -6 -26 -4 -28 24 -28 27
0 30 -3 31 -32 0 -29 119 417 119 450 0 7 -14 12 -36 12 l-36 0 7 40 7 40
-739 0 c-625 -1 -735 -3 -720 -14z"/>
<path d="M1231 3692 c-7 -24 -161 -638 -342 -1365 -182 -727 -332 -1330 -335
-1339 -5 -15 1 -18 35 -18 34 0 42 4 46 23 3 12 154 615 335 1339 181 724 330
1325 332 1335 2 13 -4 19 -24 21 -18 2 -28 10 -30 25 -3 17 -7 11 -17 -21z"/>
<path d="M1665 3238 c-7 -23 -87 -342 -95 -383 -5 -23 -22 -92 -39 -155 -16
-63 -31 -126 -33 -139 l-3 -24 480 2 c356 2 482 5 487 14 4 7 8 22 8 35 l0 23
-422 -1 c-233 -1 -431 -1 -440 -1 -14 1 -18 10 -18 40 0 22 5 41 11 43 6 2 17
31 24 63 14 63 68 282 92 373 l14 52 467 1 c271 0 458 4 446 9 -16 6 -20 15
-17 34 l5 26 -481 0 c-376 0 -483 -3 -486 -12z"/>
<path d="M2457 2523 c-3 -5 -23 -82 -46 -173 -23 -91 -46 -182 -51 -202 l-11
-38 -484 0 -483 0 -7 -32 c-4 -18 -20 -82 -35 -143 -16 -60 -75 -294 -130
-520 -56 -225 -104 -418 -107 -427 -4 -17 -24 -18 -238 -18 l-233 0 -11 -31
c-6 -18 -11 -34 -11 -35 0 -2 116 -3 258 -3 141 1 249 3 240 6 -37 9 -17 63
23 63 26 0 29 -4 30 -32 1 -27 3 -23 14 22 16 68 126 506 164 655 16 61 46
179 67 263 l38 152 470 1 c292 0 462 4 449 9 -40 16 -26 70 18 70 25 0 29 -4
29 -27 0 -14 2 -24 5 -22 2 3 31 110 63 237 l59 232 -38 0 c-21 0 -40 -3 -42
-7z"/>
</g>
</svg>
